<?xml version="1.0" encoding="utf-8"?>
<!-- Generator: Adobe Illustrator 19.1.0, SVG Export Plug-In . SVG Version: 6.00 Build 0)  -->
<svg version="1.1" id="Lager_1" xmlns="http://www.w3.org/2000/svg" xmlns:xlink="http://www.w3.org/1999/xlink" x="0px" y="0px"
	 viewBox="0 0 595.3 841.9" style="enable-background:new 0 0 595.3 841.9;" xml:space="preserve">
<style type="text/css">
	.st0{clip-path:url(#SVGID_2_);}
</style>
<g>
	<defs>
		<path id="SVGID_1_" d="M294.7,841.9c0,0-262.4-194.2-263.3-173.3C36.2,562.1,0,533.5,0,533.5S98.2,474.8,121.4,393
			c23.2-81.9,51.9-91.4,51.9-91.4s-24.6,69.6,38.2,69.6c62.8,0,95.5-43.7,95.5-43.7s37-64.6-40.9-98.2
			c-60-25.9-122.8,27.3-122.8,27.3C141.7,226.5,188,148.7,279.7,101c75.6-39.4,75-101,75-101s38.2,60-61.4,133.7
			c-43.6,32.3,23.2,43.7,23.2,43.7s96.9,27.3,120.1,133.7c28.4,130.4,128.3,189.7,128.3,189.7s5,131,27.3,131
			c-41.7,0-234.7,151.5-234.7,151.5L271,690.1l-89.7-84.6c132.4-159.6,218.5-32.4,218.5-32.4s5.5,27.3-10.9,38.2
			c-13.2,8.8-74.2,19.7-68.2-24.6c4.5-33.5-60,20.5-60,20.5s72.3,65.5,96.9,66.9c24.6,1.4,124.2-81.9,124.2-81.9
			S363,395.7,217,504.9c-27.2,20.4-1.4-40.9-1.4-40.9s-31.3,19.1-53.1,60c-6.5,12.2-57.3,68.2-57.3,68.2l2.7,34.1
			c0,0,157.3,122.6,208.8,192.4L294.7,841.9L294.7,841.9z"/>
	</defs>
	<use xlink:href="#SVGID_1_"  style="overflow:visible;fill:#FFFFFF;"/>
	<clipPath id="SVGID_2_">
		<use xlink:href="#SVGID_1_"  style="overflow:visible;"/>
	</clipPath>
	<g class="st0">
		<defs>
			<rect id="SVGID_3_" x="0" width="592.2" height="841.9"/>
		</defs>
		<use xlink:href="#SVGID_3_"  style="overflow:visible;fill:#FFFFFF;"/>
		<clipPath id="SVGID_4_">
			<use xlink:href="#SVGID_3_"  style="overflow:visible;"/>
		</clipPath>
	</g>
</g>
</svg>
